<?xml version="1.0" standalone="no"?>
<!DOCTYPE svg PUBLIC "-//W3C//DTD SVG 20010904//EN"
 "http://www.w3.org/TR/2001/REC-SVG-20010904/DTD/svg10.dtd">
<svg version="1.0" xmlns="http://www.w3.org/2000/svg"
 width="512.000000pt" height="512.000000pt" viewBox="0 0 512.000000 512.000000"
 preserveAspectRatio="xMidYMid meet">
<metadata>
Created by potrace 1.14, written by Peter Selinger 2001-2017
</metadata>
<g transform="translate(0.000000,512.000000) scale(0.100000,-0.100000)"
fill="#000000" stroke="none">
<path d="M1795 5029 c-22 -4 -43 -5 -47 -3 -4 2 -9 0 -13 -6 -3 -5 -13 -10
-21 -10 -24 0 -105 -40 -149 -73 -141 -105 -221 -272 -179 -372 15 -37 64 -82
98 -91 13 -3 27 -11 29 -18 3 -6 -24 -43 -59 -81 -167 -179 -169 -338 -7 -439
24 -14 50 -26 59 -26 31 0 7 -25 -57 -59 -293 -155 -593 -406 -785 -658 -20
-27 -39 -50 -43 -53 -28 -23 -221 -344 -221 -369 0 -6 -4 -11 -10 -11 -5 0
-10 -8 -10 -18 0 -10 -4 -22 -9 -28 -5 -5 -25 -47 -44 -94 -89 -217 -153 -458
-173 -650 -4 -30 -9 -73 -13 -95 -8 -43 -6 -197 3 -230 38 -148 143 -281 271
-344 122 -60 227 -59 290 4 27 27 51 81 47 107 -3 16 28 15 46 -3 12 -10 25
-19 30 -19 5 0 15 -7 23 -16 38 -46 188 -96 261 -87 58 6 138 54 138 82 0 6 4
11 9 11 5 0 12 11 15 25 10 39 29 29 55 -28 145 -308 408 -629 701 -857 25
-19 47 -38 48 -42 2 -5 8 -8 12 -8 5 0 37 -20 72 -44 123 -85 301 -181 453
-244 52 -21 259 -93 279 -96 6 -1 40 -9 76 -18 148 -37 182 -40 288 -24 125
18 286 136 351 257 39 74 50 163 25 211 -20 39 -63 76 -96 83 -39 9 -35 33 15
81 121 119 166 232 132 334 -27 83 -117 145 -246 172 -32 6 -59 15 -59 18 0 4
46 26 103 50 189 79 408 201 517 286 147 115 202 164 295 256 61 60 126 130
145 155 19 25 40 50 45 57 122 135 306 462 387 690 65 180 119 399 120 487 0
42 -2 81 -5 86 -3 5 -9 25 -12 44 -3 19 -10 38 -16 43 -5 6 -9 16 -9 24 0 32
-92 151 -161 207 -30 25 -107 64 -134 68 -11 1 -25 5 -30 9 -14 9 -75 3 -109
-11 -33 -13 -76 -51 -76 -67 0 -19 -25 -64 -35 -64 -6 0 -24 14 -40 32 -114
121 -249 177 -350 145 -48 -14 -108 -74 -135 -133 -26 -59 -51 -163 -43 -178
4 -7 2 -8 -5 -1 -6 6 -29 56 -51 113 -149 375 -389 713 -691 971 -126 108
-218 173 -395 278 -99 59 -404 193 -475 208 -8 2 -27 8 -42 14 -16 6 -28 8
-28 6 0 -2 -12 0 -27 6 -36 14 -45 16 -123 33 -84 19 -155 24 -205 15z"/>
</g>
</svg>
